<?xml version="1.0" encoding="utf-8"?>
<!-- Generator: Adobe Illustrator 21.0.0, SVG Export Plug-In . SVG Version: 6.00 Build 0)  -->
<svg version="1.1" id="Capa_1" xmlns="http://www.w3.org/2000/svg" xmlns:xlink="http://www.w3.org/1999/xlink" x="0px" y="0px"
	 viewBox="0 0 59.5 59.5" style="enable-background:new 0 0 59.5 59.5;" xml:space="preserve">
<style type="text/css">
	.st0{fill:#FFFFFF;}
</style>
<g>
	<g>
		<path class="st0" d="M58.9,33.9L45,20.1V11c0-1.1-0.9-2.1-2.1-2.1c-1.1,0-2.1,0.9-2.1,2.1v5l-9.7-9.7c-0.8-0.8-2.1-0.8-2.9,0
			L0.6,33.9c-0.8,0.8-0.8,2.1,0,2.9c0.8,0.8,2.1,0.8,2.9,0l26.2-26.2L56,36.8c0.4,0.4,0.9,0.6,1.5,0.6c0.5,0,1.1-0.2,1.5-0.6
			C59.7,36,59.7,34.7,58.9,33.9z"/>
		<path class="st0" d="M53,36.2L31.2,14.4c-0.4-0.4-0.9-0.6-1.5-0.6c-0.5,0-1.1,0.2-1.5,0.6L6.5,36.2c-0.3,0.3-0.5,0.7-0.6,1.1
			c-0.1,0.3-0.1,0.6-0.1,0.9v10.6c0,2.7,2.2,5,5,5h10.6c1.4,0,2.7-0.6,3.6-1.6c0.9-0.9,1.3-2.1,1.3-3.4v-7.8c0-1.9,1.5-3.5,3.3-3.7
			c1.9,0.2,3.3,1.8,3.3,3.7v7.8c0,1.3,0.5,2.5,1.3,3.4c0.9,1,2.3,1.6,3.6,1.6h10.6c2.7,0,5-2.2,5-5V38.3c0-0.3,0-0.6-0.1-0.9
			C53.5,36.9,53.3,36.5,53,36.2z"/>
	</g>
</g>
</svg>
